<?xml version="1.0" encoding="utf-8"?>
<!-- Generator: Adobe Illustrator 24.2.0, SVG Export Plug-In . SVG Version: 6.00 Build 0)  -->
<svg version="1.1" xmlns="http://www.w3.org/2000/svg" xmlns:xlink="http://www.w3.org/1999/xlink" x="0px" y="0px"
	 viewBox="0 0 283.46 283.46" style="enable-background:new 0 0 283.46 283.46;" xml:space="preserve">
<style type="text/css">
	.st0{display:none;}
	.st1{display:inline;fill:#010202;}
	.st2{fill:#FFFFFF;}
	.st3{fill:url(#XMLID_42_);}
	.st4{clip-path:url(#XMLID_43_);fill:none;stroke:#29265B;stroke-width:10;stroke-miterlimit:10;}
	.st5{clip-path:url(#XMLID_44_);fill:none;stroke:#1A9DD9;stroke-miterlimit:10;}
	.st6{clip-path:url(#XMLID_45_);}
	.st7{fill:#E6007E;}
	.st8{fill:#FFED00;}
</style>
<g id="BG" class="st0">
	<rect id="XMLID_2_" class="st1" width="283.46" height="283.46"/>
</g>
<g id="Calque_11">
	<g id="XMLID_137_">
		<polygon id="XMLID_139_" class="st2" points="18.99,70.86 141.73,0 264.47,70.86 264.47,212.6 141.73,283.46 18.99,212.6 		"/>
	</g>
</g>
<g id="Layer_4">
	<linearGradient id="XMLID_42_" gradientUnits="userSpaceOnUse" x1="25.8369" y1="141.73" x2="258.3652" y2="141.73">
		<stop  offset="0" style="stop-color:#1A9DD9"/>
		<stop  offset="0.0458" style="stop-color:#1C92CD"/>
		<stop  offset="0.2293" style="stop-color:#266CA3"/>
		<stop  offset="0.4084" style="stop-color:#2B4F85"/>
		<stop  offset="0.5789" style="stop-color:#2C3B70"/>
		<stop  offset="0.7386" style="stop-color:#2B2F64"/>
		<stop  offset="0.8834" style="stop-color:#29285D"/>
		<stop  offset="1" style="stop-color:#29265B"/>
	</linearGradient>
	<polygon id="XMLID_138_" class="st3" points="25.13,74.41 141.73,7.08 258.34,74.41 258.34,209.05 141.73,276.38 25.13,209.05 	"/>
</g>
<g id="escalier">
	<g>
		<defs>
			<polygon id="XMLID_1_" points="25.13,74.41 141.73,7.08 258.34,74.41 258.34,209.05 141.73,276.38 25.13,209.05 			"/>
		</defs>
		<clipPath id="XMLID_43_">
			<use xlink:href="#XMLID_1_"  style="overflow:visible;"/>
		</clipPath>
		<polyline class="st4" points="30.24,216.06 70.41,216.06 70.41,209.21 93.34,209.21 93.34,182.45 109.57,182.45 109.57,175 
			114.39,175 114.39,159.26 144.8,159.26 144.8,140.43 153.38,140.43 153.38,130.12 161.48,130.12 161.48,116.16 171.51,116.16 
			171.51,102.2 183.91,102.2 183.91,97.55 229.93,97.55 229.93,88.79 260.99,88.79 		"/>
	</g>
</g>
<g id="courbe">
	<g>
		<defs>
			<polygon id="XMLID_3_" points="25.13,74.41 141.73,7.08 258.34,74.41 258.34,209.05 141.73,276.38 25.13,209.05 			"/>
		</defs>
		<clipPath id="XMLID_44_">
			<use xlink:href="#XMLID_3_"  style="overflow:visible;"/>
		</clipPath>
		<path class="st5" d="M22.13,216.94c143.98,0,94.52-131.23,236.21-131.23"/>
	</g>
</g>
<g id="cells">
	<g>
		<defs>
			<polygon id="XMLID_4_" points="25.13,74.41 141.73,7.08 258.34,74.41 258.34,209.05 141.73,276.38 25.13,209.05 			"/>
		</defs>
		<clipPath id="XMLID_45_">
			<use xlink:href="#XMLID_4_"  style="overflow:visible;"/>
		</clipPath>
		<g class="st6">
			<polygon class="st2" points="82.63,160.9 59.17,161.62 71.52,181.57 75.08,174.96 208.18,254.96 211.68,249.14 78.3,168.96 			
				"/>
			<polygon class="st7" points="186.48,93.06 174.39,113.17 182.73,113.32 179.99,268.81 186.78,268.93 189.52,113.44 
				197.86,113.58 			"/>
			<polygon class="st2" points="130.42,81.01 -5.97,156.58 -2.67,162.52 133.71,86.95 137.79,94.32 149.88,74.2 126.42,73.79 			"/>
			<path class="st8" d="M140.25,230.61c-0.39,22.36,17.48,40.87,39.83,41.26c22.36,0.39,40.87-17.48,41.27-39.84
				c0.39-22.36-17.48-40.87-39.84-41.26C159.15,190.38,140.64,208.25,140.25,230.61z"/>
			<path class="st8" d="M-11.77,138.49c-0.38,21.66,16.93,39.59,38.59,39.98c21.66,0.38,39.59-16.93,39.97-38.59
				c0.38-21.66-16.93-39.59-38.59-39.97C6.55,99.52-11.39,116.83-11.77,138.49z"/>
			<path class="st8" d="M143.4,51.79c-0.39,22.36,17.48,40.87,39.83,41.26c22.36,0.39,40.87-17.48,41.27-39.83
				c0.39-22.36-17.48-40.87-39.84-41.26C162.3,11.56,143.79,29.43,143.4,51.79z"/>
		</g>
	</g>
</g>
<g id="nom">
	<g>
		<g>
			<path class="st2" d="M139.99,123.04c1.1,0.02,2.03,0.43,2.8,1.24c0.77,0.81,1.15,1.78,1.13,2.9c-0.02,1.11-0.42,2.06-1.21,2.83
				c-0.79,0.77-1.72,1.15-2.8,1.13c-1.11-0.02-2.05-0.43-2.82-1.25s-1.15-1.79-1.13-2.94c0.02-1.1,0.42-2.03,1.21-2.8
				C137.95,123.39,138.89,123.02,139.99,123.04z M136.7,133.25l6.25,0.1l-0.4,24.92l-6.25-0.1L136.7,133.25z"/>
			<path class="st2" d="M155.29,124.36l6.25,0.1l-0.15,9.18l3.71,0.06l-0.09,5.38l-3.71-0.06l-0.31,19.54l-6.25-0.1l0.31-19.54
				l-3.21-0.05l0.09-5.38l3.21,0.05L155.29,124.36z"/>
			<path class="st2" d="M196.38,139.24l-5.25,2.78c-0.96-1.04-1.92-1.76-2.87-2.18c-0.95-0.41-2.07-0.63-3.35-0.65
				c-2.34-0.04-4.24,0.63-5.71,2c-1.47,1.37-2.22,3.15-2.25,5.33c-0.03,2.12,0.63,3.86,2,5.23c1.37,1.36,3.19,2.06,5.45,2.1
				c2.8,0.04,4.99-0.87,6.58-2.76l4.88,3.45c-2.73,3.43-6.53,5.11-11.4,5.03c-4.38-0.07-7.79-1.42-10.23-4.06
				c-2.44-2.64-3.63-5.69-3.57-9.18c0.04-2.41,0.68-4.62,1.92-6.64c1.24-2.01,2.95-3.58,5.13-4.71c2.18-1.13,4.6-1.67,7.28-1.62
				c2.47,0.04,4.69,0.57,6.64,1.58C193.57,135.98,195.16,137.41,196.38,139.24z"/>
			<path class="st2" d="M221.07,124.98l6.25,0.1l-0.55,34.54l-6.25-0.1l0.04-2.63c-1.24,1.14-2.48,1.96-3.71,2.45
				c-1.24,0.49-2.57,0.73-4,0.7c-3.22-0.05-5.98-1.34-8.29-3.88c-2.31-2.53-3.43-5.66-3.37-9.37c0.06-3.85,1.25-6.98,3.56-9.4
				c2.31-2.42,5.09-3.61,8.34-3.55c1.49,0.02,2.89,0.33,4.2,0.92c1.3,0.59,2.5,1.45,3.6,2.6L221.07,124.98z M214.26,139.62
				c-1.93-0.03-3.55,0.63-4.85,1.97c-1.3,1.35-1.97,3.09-2,5.23c-0.03,2.15,0.59,3.93,1.87,5.34s2.87,2.13,4.77,2.16
				c1.96,0.03,3.6-0.63,4.92-1.97s1.99-3.13,2.03-5.34c0.03-2.17-0.58-3.93-1.86-5.3C217.86,140.35,216.24,139.65,214.26,139.62z"/>
			<path class="st2" d="M235.2,134.83l2.22,0.04c0.07-3.27,0.15-5.2,0.25-5.79c0.19-1.37,0.78-2.45,1.78-3.24s2.4-1.16,4.2-1.14
				c1.3,0.02,2.76,0.34,4.38,0.96l-0.08,4.76c-0.9-0.27-1.64-0.42-2.22-0.43c-0.73-0.01-1.27,0.13-1.61,0.43
				c-0.25,0.23-0.38,0.7-0.39,1.41l-0.07,3.11l3.96,0.06l-0.08,5.29l-3.96-0.06l-0.32,19.63l-6.25-0.1l0.32-19.63l-2.22-0.04
				L235.2,134.83z"/>
			<path class="st2" d="M129.38,139.24l-5.25,2.78c-0.96-1.04-1.92-1.76-2.87-2.18c-0.95-0.41-2.07-0.63-3.35-0.65
				c-2.34-0.04-4.24,0.63-5.71,2c-1.47,1.37-2.22,3.15-2.25,5.33c-0.03,2.12,0.63,3.86,2,5.23c1.37,1.36,3.19,2.06,5.45,2.1
				c2.8,0.04,4.99-0.87,6.58-2.76l4.88,3.45c-2.73,3.43-6.53,5.11-11.4,5.03c-4.38-0.07-7.79-1.42-10.23-4.06s-3.63-5.69-3.57-9.18
				c0.04-2.41,0.68-4.62,1.92-6.64c1.24-2.01,2.95-3.58,5.13-4.71c2.18-1.13,4.6-1.67,7.28-1.62c2.47,0.04,4.69,0.57,6.64,1.58
				C126.57,135.98,128.15,137.41,129.38,139.24z"/>
		</g>
	</g>
</g>
</svg>
